A:\Common\BMMB\PROJECTS\STRATO\DataSTRATO\DataSTRATO\0021~016 ID\0021~aa~ID 016\Standing_STRATO_ID_16.mot
version=1
nRows=52
nColumns=10
inDegrees=yes

BTS OpenSim export

endheader
time	[P0A]_force_vx	[P0A]_force_vy	[P0A]_force_vz	[P0A]_force_px	[P0A]_force_py	[P0A]_force_pz	[P0A]_torque_x	[P0A]_torque_y	[P0A]_torque_z
2.204000	7.33141232	770.37701416	-0.49576899	0.19737288	0.00008696	0.35110775	-0.00038669	-1.27366650	-0.00022567
2.208000	7.35040045	770.34851074	-0.45167887	0.19736238	0.00008696	0.35114408	-0.00038515	-1.26860404	-0.00022477
2.212000	7.36515999	770.33142090	-0.42228907	0.19735248	0.00008695	0.35117960	-0.00038330	-1.26249957	-0.00022369
2.216000	7.37780857	770.32336426	-0.40129942	0.19734144	0.00008695	0.35120955	-0.00038101	-1.25497258	-0.00022236
2.220000	7.39674473	770.33197021	-0.39082551	0.19732977	0.00008695	0.35123673	-0.00037988	-1.25124931	-0.00022170
2.224000	7.40939522	770.34948730	-0.37193277	0.19731952	0.00008695	0.35126320	-0.00037896	-1.24820757	-0.00022116
2.228000	7.42202091	770.37713623	-0.36774811	0.19730932	0.00008695	0.35128567	-0.00037845	-1.24653804	-0.00022086
2.232000	7.43045139	770.41412354	-0.36145276	0.19730009	0.00008695	0.35130802	-0.00037811	-1.24542522	-0.00022066
2.236000	7.43465281	770.47143555	-0.37195739	0.19728999	0.00008695	0.35132831	-0.00037802	-1.24512768	-0.00022061
2.240000	7.43252802	770.52264404	-0.39295864	0.19728060	0.00008695	0.35135016	-0.00037890	-1.24801779	-0.00022112
2.244000	7.43671560	770.56866455	-0.40766811	0.19727200	0.00008694	0.35137364	-0.00037953	-1.25010276	-0.00022149
2.248000	7.43879986	770.61566162	-0.42447498	0.19726402	0.00008694	0.35140297	-0.00038050	-1.25328100	-0.00022206
2.252000	7.44086456	770.66363525	-0.45178887	0.19725841	0.00008694	0.35143432	-0.00038068	-1.25387168	-0.00022216
2.256000	7.44499302	770.71142578	-0.50012058	0.19725196	0.00008693	0.35146436	-0.00038036	-1.25281620	-0.00022197
2.260000	7.44071341	770.75219727	-0.54843831	0.19724503	0.00008693	0.35150155	-0.00037925	-1.24915481	-0.00022133
2.264000	7.43644333	770.77770996	-0.58835310	0.19723609	0.00008693	0.35153970	-0.00037794	-1.24484253	-0.00022056
2.268000	7.43429041	770.78576660	-0.61776757	0.19722863	0.00008692	0.35157967	-0.00037661	-1.24048328	-0.00021979
2.272000	7.43003368	770.79724121	-0.64927912	0.19722137	0.00008692	0.35161766	-0.00037527	-1.23604786	-0.00021900
2.276000	7.41734314	770.81158447	-0.69548464	0.19721487	0.00008691	0.35164911	-0.00037407	-1.23210561	-0.00021830
2.280000	7.40885592	770.82318115	-0.74169838	0.19720916	0.00008691	0.35167617	-0.00037285	-1.22807980	-0.00021759
2.284000	7.40037537	770.82562256	-0.78160959	0.19720230	0.00008691	0.35170093	-0.00037207	-1.22551525	-0.00021714
2.288000	7.39190626	770.81683350	-0.81521821	0.19719692	0.00008690	0.35172492	-0.00037174	-1.22442663	-0.00021694
2.292000	7.40026093	770.80316162	-0.84045315	0.19719435	0.00008690	0.35174015	-0.00037276	-1.22778094	-0.00021754
2.296000	7.40857887	770.79571533	-0.88670111	0.19719529	0.00008690	0.35174868	-0.00037416	-1.23238611	-0.00021835
2.300000	7.41059589	770.78131104	-0.93083721	0.19719660	0.00008690	0.35175329	-0.00037559	-1.23712254	-0.00021919
2.304000	7.41262627	770.76275635	-0.96656835	0.19719882	0.00008690	0.35175568	-0.00037750	-1.24340475	-0.00022031
2.308000	7.41888142	770.73718262	-0.98970020	0.19720127	0.00008690	0.35175860	-0.00037949	-1.24995852	-0.00022147
2.312000	7.41884327	770.70068359	-1.00441670	0.19720373	0.00008690	0.35175863	-0.00038109	-1.25522232	-0.00022240
2.316000	7.41460657	770.65905762	-1.01702476	0.19720575	0.00008690	0.35175812	-0.00038218	-1.25881636	-0.00022304
2.320000	7.40828037	770.61944580	-1.02332461	0.19720772	0.00008690	0.35175619	-0.00038297	-1.26141596	-0.00022350
2.324000	7.37671947	770.58581543	-1.03798258	0.19720942	0.00008689	0.35175645	-0.00038252	-1.25993228	-0.00022324
2.328000	7.34519577	770.55529785	-1.03372729	0.19721049	0.00008689	0.35175866	-0.00038186	-1.25777256	-0.00022285
2.332000	7.32837677	770.52893066	-1.03370118	0.19721159	0.00008689	0.35176057	-0.00038118	-1.25553465	-0.00022246
2.336000	7.31786203	770.49035645	-1.03158724	0.19721197	0.00008689	0.35176197	-0.00037919	-1.24898064	-0.00022129
2.340000	7.30735159	770.45172119	-1.02737200	0.19721140	0.00008689	0.35176414	-0.00037765	-1.24389470	-0.00022039
2.344000	7.30313635	770.41314697	-1.02737105	0.19721195	0.00008689	0.35176620	-0.00037683	-1.24120688	-0.00021992
2.348000	7.30314302	770.37957764	-1.01897144	0.19721457	0.00008689	0.35176504	-0.00037642	-1.23985898	-0.00021968
2.352000	7.30314112	770.35052490	-1.01477396	0.19721760	0.00008689	0.35175854	-0.00037621	-1.23914647	-0.00021955
2.356000	7.32838249	770.31420898	-0.99591374	0.19721852	0.00008689	0.35174769	-0.00037734	-1.24286878	-0.00022021
2.360000	7.35360146	770.27008057	-0.98756206	0.19721931	0.00008690	0.35173506	-0.00037839	-1.24634337	-0.00022083
2.364000	7.36832285	770.23590088	-0.97498661	0.19722250	0.00008690	0.35172042	-0.00037924	-1.24914157	-0.00022132
2.368000	7.38094330	770.22540283	-0.96660590	0.19722725	0.00008690	0.35170287	-0.00038068	-1.25387990	-0.00022216
2.372000	7.39565468	770.22283936	-0.96453190	0.19723469	0.00008690	0.35168120	-0.00038111	-1.25528753	-0.00022241
2.376000	7.40618467	770.23577881	-0.95404184	0.19724146	0.00008690	0.35165694	-0.00038067	-1.25384998	-0.00022216
2.380000	7.40828705	770.25372314	-0.95614368	0.19724780	0.00008690	0.35163301	-0.00038064	-1.25372875	-0.00022214
2.384000	7.40409279	770.28271484	-0.95613104	0.19725427	0.00008691	0.35161290	-0.00038024	-1.25241721	-0.00022190
2.388000	7.38727522	770.33404541	-0.96659833	0.19726442	0.00008691	0.35159230	-0.00037898	-1.24826777	-0.00022117
2.392000	7.36628199	770.40258789	-0.96654749	0.19727476	0.00008691	0.35156834	-0.00037792	-1.24480081	-0.00022055
2.396000	7.34528446	770.47106934	-0.96859825	0.19728163	0.00008691	0.35153937	-0.00037725	-1.24259067	-0.00022016
2.400000	7.32429981	770.52966309	-0.96224523	0.19728842	0.00008691	0.35151142	-0.00037701	-1.24179828	-0.00022002
2.404000	7.30123711	770.58709717	-0.94327986	0.19729279	0.00008692	0.35148424	-0.00037797	-1.24494874	-0.00022058
2.408000	7.28236628	770.64141846	-0.92852557	0.19729699	0.00008692	0.35145539	-0.00037987	-1.25119638	-0.00022169
